<svg version="1.0" preserveAspectRatio="xMidYMid meet" height="1024" viewBox="0 0 768 767.999994" zoomAndPan="magnify" width="1024" xmlns:xlink="http://www.w3.org/1999/xlink" xmlns="http://www.w3.org/2000/svg"><defs><clipPath id="4fa51c1124"><path clip-rule="nonzero" d="M 93 40 L 721.574219 40 L 721.574219 759.394531 L 93 759.394531 Z M 93 40"></path></clipPath><clipPath id="7819c77fc3"><path clip-rule="nonzero" d="M 67 9.394531 L 695 9.394531 L 695 728 L 67 728 Z M 67 9.394531"></path></clipPath><clipPath id="77aa2c72fb"><path clip-rule="nonzero" d="M 120 329 L 468 329 L 468 676 L 120 676 Z M 120 329"></path></clipPath><clipPath id="50c8753bfb"><path clip-rule="evenodd" d="M 399.488281 9.839844 L 522.796875 9.398438 C 524.128906 79.84375 558.082031 123.097656 596.046875 149.859375 C 596.046875 150.300781 596.503906 150.300781 596.503906 150.300781 C 623.308594 170.363281 655.027344 180.621094 694.785156 181.515625 L 694.785156 304.574219 C 624.644531 304.574219 566.566406 281.835938 522.796875 249.285156 L 522.335938 506.128906 C 521.453125 575.683594 491.519531 627.414062 455.332031 661.738281 C 452.203125 664.867188 449.085938 667.988281 445.507812 670.65625 C 399.046875 709.898438 353.484375 728.183594 290.941406 727.734375 C 229.289062 726.847656 182.828125 703.65625 143.519531 669.773438 C 114.039062 644.355469 90.359375 611.355469 76.957031 565.875 C 47.917969 465.996094 84.546875 367.003906 167.191406 310.378906 C 168.984375 309.039062 171.210938 307.703125 173.445312 306.359375 C 240.457031 264.449219 319.980469 255.082031 399.046875 294.773438 C 399.488281 352.738281 399.046875 414.71875 399.046875 472.230469 C 380.289062 402.234375 287.363281 365.21875 226.613281 417.839844 C 226.164062 418.28125 224.820312 419.625 224.378906 420.066406 C 200.25 440.578125 189.523438 472.6875 191.316406 507.015625 C 195.78125 568.550781 246.710938 606.898438 302.109375 604.222656 C 302.109375 604.222656 302.550781 604.222656 302.550781 604.222656 C 356.160156 598.867188 400.386719 555.179688 399.046875 496.3125 Z M 399.488281 9.839844"></path></clipPath><clipPath id="dbb2b82703"><path clip-rule="nonzero" d="M 93 40 L 695 40 L 695 728 L 93 728 Z M 93 40"></path></clipPath><clipPath id="d4f6b6c5ba"><path clip-rule="evenodd" d="M 399.488281 9.839844 L 522.796875 9.398438 C 524.128906 79.84375 558.082031 123.097656 596.046875 149.859375 C 596.046875 150.300781 596.503906 150.300781 596.503906 150.300781 C 623.308594 170.363281 655.027344 180.621094 694.785156 181.515625 L 694.785156 304.574219 C 624.644531 304.574219 566.566406 281.835938 522.796875 249.285156 L 522.335938 506.128906 C 521.453125 575.683594 491.519531 627.414062 455.332031 661.738281 C 452.203125 664.867188 449.085938 667.988281 445.507812 670.65625 C 399.046875 709.898438 353.484375 728.183594 290.941406 727.734375 C 229.289062 726.847656 182.828125 703.65625 143.519531 669.773438 C 114.039062 644.355469 90.359375 611.355469 76.957031 565.875 C 47.917969 465.996094 84.546875 367.003906 167.191406 310.378906 C 168.984375 309.039062 171.210938 307.703125 173.445312 306.359375 C 240.457031 264.449219 319.980469 255.082031 399.046875 294.773438 C 399.488281 352.738281 399.046875 414.71875 399.046875 472.230469 C 380.289062 402.234375 287.363281 365.21875 226.613281 417.839844 C 226.164062 418.28125 224.820312 419.625 224.378906 420.066406 C 200.25 440.578125 189.523438 472.6875 191.316406 507.015625 C 195.78125 568.550781 246.710938 606.898438 302.109375 604.222656 C 302.109375 604.222656 302.550781 604.222656 302.550781 604.222656 C 356.160156 598.867188 400.386719 555.179688 399.046875 496.3125 Z M 399.488281 9.839844"></path></clipPath><clipPath id="e2e4af17aa"><path clip-rule="nonzero" d="M 93 40 L 721.125 40 L 721.125 758.894531 L 93 758.894531 Z M 93 40"></path></clipPath><clipPath id="5d7d389a16"><path clip-rule="nonzero" d="M 66 8.894531 L 695 8.894531 L 695 728 L 66 728 Z M 66 8.894531"></path></clipPath><clipPath id="0c469757be"><path clip-rule="nonzero" d="M 120 328 L 467 328 L 467 675 L 120 675 Z M 120 328"></path></clipPath><clipPath id="4d0f308d5f"><path clip-rule="evenodd" d="M 399.039062 9.335938 L 522.34375 8.894531 C 523.679688 79.34375 557.632812 122.59375 595.597656 149.355469 C 595.597656 149.796875 596.054688 149.796875 596.054688 149.796875 C 622.859375 169.859375 654.578125 180.121094 694.335938 181.011719 L 694.335938 304.074219 C 624.195312 304.074219 566.113281 281.332031 522.34375 248.78125 L 521.886719 505.628906 C 521.003906 575.183594 491.070312 626.910156 454.882812 661.238281 C 451.753906 664.363281 448.636719 667.484375 445.058594 670.15625 C 398.59375 709.394531 353.03125 727.679688 290.488281 727.230469 C 228.839844 726.34375 182.378906 703.15625 143.070312 669.269531 C 113.585938 643.851562 89.910156 610.851562 76.507812 565.371094 C 47.46875 465.496094 84.097656 366.503906 166.738281 309.878906 C 168.53125 308.535156 170.761719 307.199219 172.996094 305.859375 C 240.007812 263.949219 319.53125 254.578125 398.59375 294.269531 C 399.039062 352.238281 398.59375 414.21875 398.59375 471.726562 C 379.835938 401.730469 286.914062 364.71875 226.164062 417.335938 C 225.710938 417.78125 224.371094 419.121094 223.925781 419.566406 C 199.800781 440.078125 189.074219 472.183594 190.867188 506.511719 C 195.328125 568.050781 246.261719 606.398438 301.65625 603.71875 C 301.65625 603.71875 302.101562 603.71875 302.101562 603.71875 C 355.710938 598.363281 399.9375 554.675781 398.59375 495.808594 Z M 399.039062 9.335938"></path></clipPath><clipPath id="04fd5f169f"><path clip-rule="nonzero" d="M 93 40 L 695 40 L 695 728 L 93 728 Z M 93 40"></path></clipPath><clipPath id="b2a76f58f2"><path clip-rule="evenodd" d="M 399.039062 9.335938 L 522.34375 8.894531 C 523.679688 79.34375 557.632812 122.59375 595.597656 149.355469 C 595.597656 149.796875 596.054688 149.796875 596.054688 149.796875 C 622.859375 169.859375 654.578125 180.121094 694.335938 181.011719 L 694.335938 304.074219 C 624.195312 304.074219 566.113281 281.332031 522.34375 248.78125 L 521.886719 505.628906 C 521.003906 575.183594 491.070312 626.910156 454.882812 661.238281 C 451.753906 664.363281 448.636719 667.484375 445.058594 670.15625 C 398.59375 709.394531 353.03125 727.679688 290.488281 727.230469 C 228.839844 726.34375 182.378906 703.15625 143.070312 669.269531 C 113.585938 643.851562 89.910156 610.851562 76.507812 565.371094 C 47.46875 465.496094 84.097656 366.503906 166.738281 309.878906 C 168.53125 308.535156 170.761719 307.199219 172.996094 305.859375 C 240.007812 263.949219 319.53125 254.578125 398.59375 294.269531 C 399.039062 352.238281 398.59375 414.21875 398.59375 471.726562 C 379.835938 401.730469 286.914062 364.71875 226.164062 417.335938 C 225.710938 417.78125 224.371094 419.121094 223.925781 419.566406 C 199.800781 440.078125 189.074219 472.183594 190.867188 506.511719 C 195.328125 568.050781 246.261719 606.398438 301.65625 603.71875 C 301.65625 603.71875 302.101562 603.71875 302.101562 603.71875 C 355.710938 598.363281 399.9375 554.675781 398.59375 495.808594 Z M 399.039062 9.335938"></path></clipPath></defs><g clip-path="url(#4fa51c1124)"><path fill-rule="evenodd" fill-opacity="1" d="M 426.234375 41.242188 L 549.539062 40.796875 C 550.875 111.246094 584.824219 154.5 622.792969 181.253906 C 622.792969 181.699219 623.25 181.699219 623.25 181.699219 C 650.054688 201.765625 681.769531 212.027344 721.53125 212.914062 L 721.53125 335.980469 C 651.390625 335.980469 593.316406 313.242188 549.539062 280.6875 L 549.085938 537.53125 C 548.195312 607.085938 518.269531 658.8125 482.074219 693.140625 C 478.953125 696.265625 475.828125 699.386719 472.25 702.058594 C 425.792969 741.304688 380.226562 759.585938 317.683594 759.136719 C 256.035156 758.25 209.570312 735.058594 170.261719 701.171875 C 140.78125 675.761719 117.101562 642.757812 103.699219 597.273438 C 74.660156 497.402344 111.289062 398.40625 193.933594 341.777344 C 195.726562 340.441406 197.960938 339.109375 200.191406 337.765625 C 267.203125 295.851562 346.71875 286.488281 425.792969 326.171875 C 426.234375 384.136719 425.792969 446.121094 425.792969 503.636719 C 407.027344 433.632812 314.109375 396.621094 253.355469 449.238281 C 252.90625 449.6875 251.566406 451.023438 251.121094 451.46875 C 226.996094 471.980469 216.269531 504.089844 218.0625 538.417969 C 222.53125 599.957031 273.457031 638.300781 328.851562 635.628906 C 328.851562 635.628906 329.296875 635.628906 329.296875 635.628906 C 382.90625 630.273438 427.132812 586.582031 425.792969 527.71875 Z M 426.234375 41.242188" fill="#fe2c55"></path></g><path fill-rule="evenodd" fill-opacity="1" d="M 320.804688 360.363281 C 416.53125 360.363281 494.066406 438.136719 494.066406 533.609375 C 494.066406 629.085938 416.53125 706.308594 320.804688 706.308594 C 225.097656 706.308594 147.558594 629.085938 147.558594 533.609375 C 147.558594 438.136719 225.097656 360.363281 320.804688 360.363281 Z M 320.804688 447.257812 C 368.402344 447.257812 407.4375 485.875 407.4375 533.609375 C 407.4375 581.347656 368.402344 619.960938 320.804688 619.960938 C 273.222656 619.960938 234.183594 581.347656 234.183594 533.609375 C 234.183594 485.875 273.222656 447.257812 320.804688 447.257812 Z M 320.804688 447.257812" fill="#fe2c55"></path><g clip-path="url(#7819c77fc3)"><path fill-rule="evenodd" fill-opacity="1" d="M 399.492188 9.839844 L 522.796875 9.394531 C 524.132812 79.84375 558.078125 123.101562 596.050781 149.855469 C 596.050781 150.300781 596.507812 150.300781 596.507812 150.300781 C 623.3125 170.363281 655.023438 180.625 694.789062 181.511719 L 694.789062 304.582031 C 624.648438 304.582031 566.570312 281.839844 522.796875 249.285156 L 522.339844 506.128906 C 521.453125 575.6875 491.527344 627.410156 455.332031 661.738281 C 452.210938 664.867188 449.085938 667.988281 445.507812 670.65625 C 399.046875 709.902344 353.480469 728.183594 290.941406 727.738281 C 229.289062 726.851562 182.828125 703.660156 143.519531 669.769531 C 114.039062 644.359375 90.359375 611.359375 76.957031 565.871094 C 47.917969 466 84.546875 367.003906 167.191406 310.375 C 168.980469 309.039062 171.214844 307.707031 173.449219 306.363281 C 240.460938 264.449219 319.976562 255.085938 399.046875 294.769531 C 399.492188 352.738281 399.046875 414.722656 399.046875 472.234375 C 380.285156 402.230469 287.367188 365.21875 226.609375 417.839844 C 226.164062 418.285156 224.824219 419.621094 224.375 420.066406 C 200.253906 440.578125 189.527344 472.6875 191.320312 507.019531 C 195.785156 568.554688 246.714844 606.898438 302.109375 604.226562 C 302.109375 604.226562 302.554688 604.226562 302.554688 604.226562 C 356.164062 598.871094 400.386719 555.179688 399.046875 496.316406 Z M 399.492188 9.839844" fill="#25f4ee"></path></g><g clip-path="url(#77aa2c72fb)"><g clip-path="url(#50c8753bfb)"><path fill-rule="evenodd" fill-opacity="1" d="M 294.050781 329.367188 C 389.777344 329.367188 467.316406 407.136719 467.316406 502.613281 C 467.316406 598.085938 389.777344 675.3125 294.050781 675.3125 C 198.34375 675.3125 120.804688 598.085938 120.804688 502.613281 C 120.804688 407.136719 198.34375 329.367188 294.050781 329.367188 Z M 294.050781 416.261719 C 341.648438 416.261719 380.6875 454.878906 380.6875 502.613281 C 380.6875 550.347656 341.648438 588.964844 294.050781 588.964844 C 246.472656 588.964844 207.429688 550.347656 207.429688 502.613281 C 207.429688 454.878906 246.472656 416.261719 294.050781 416.261719 Z M 294.050781 416.261719" fill="#25f4ee"></path></g></g><g clip-path="url(#dbb2b82703)"><g clip-path="url(#d4f6b6c5ba)"><path fill-rule="evenodd" fill-opacity="1" d="M 426.199219 41.242188 L 549.503906 40.796875 C 550.839844 111.246094 584.785156 154.5 622.757812 181.253906 C 622.757812 181.699219 623.214844 181.699219 623.214844 181.699219 C 650.019531 201.765625 681.730469 212.027344 721.496094 212.914062 L 721.496094 335.980469 C 651.355469 335.980469 593.277344 313.242188 549.503906 280.6875 L 549.046875 537.53125 C 548.160156 607.085938 518.234375 658.8125 482.039062 693.140625 C 478.917969 696.265625 475.792969 699.386719 472.214844 702.058594 C 425.753906 741.304688 380.1875 759.585938 317.648438 759.136719 C 256 758.25 209.535156 735.058594 170.226562 701.171875 C 140.746094 675.761719 117.066406 642.757812 103.664062 597.273438 C 74.625 497.402344 111.253906 398.40625 193.898438 341.777344 C 195.691406 340.441406 197.921875 339.109375 200.15625 337.765625 C 267.167969 295.851562 346.683594 286.488281 425.753906 326.171875 C 426.199219 384.136719 425.753906 446.121094 425.753906 503.636719 C 406.992188 433.632812 314.074219 396.621094 253.316406 449.238281 C 252.871094 449.6875 251.53125 451.023438 251.085938 451.46875 C 226.960938 471.980469 216.234375 504.089844 218.027344 538.417969 C 222.492188 599.957031 273.421875 638.300781 328.816406 635.628906 C 328.816406 635.628906 329.261719 635.628906 329.261719 635.628906 C 382.871094 630.273438 427.09375 586.582031 425.753906 527.71875 C 426.199219 365.40625 426.199219 203.109375 426.199219 41.242188 Z M 426.199219 41.242188" fill="#000000"></path></g></g><g clip-path="url(#e2e4af17aa)"><path fill-rule="evenodd" fill-opacity="1" d="M 425.785156 40.742188 L 549.089844 40.296875 C 550.425781 110.742188 584.375 154 622.347656 180.753906 C 622.347656 181.199219 622.800781 181.199219 622.800781 181.199219 C 649.605469 201.265625 681.320312 211.523438 721.082031 212.414062 L 721.082031 335.480469 C 650.941406 335.480469 592.867188 312.738281 549.089844 280.183594 L 548.636719 537.03125 C 547.746094 606.585938 517.820312 658.308594 481.625 692.640625 C 478.503906 695.765625 475.382812 698.886719 471.800781 701.558594 C 425.34375 740.800781 379.777344 759.082031 317.234375 758.636719 C 255.585938 757.75 209.121094 734.558594 169.8125 700.671875 C 140.332031 675.257812 116.652344 642.257812 103.25 596.773438 C 74.214844 496.898438 110.839844 397.90625 193.484375 341.277344 C 195.277344 339.9375 197.511719 338.605469 199.742188 337.265625 C 266.753906 295.347656 346.273438 285.984375 425.34375 325.671875 C 425.785156 383.636719 425.34375 445.621094 425.34375 503.132812 C 406.578125 433.132812 313.660156 396.117188 252.90625 448.738281 C 252.457031 449.183594 251.117188 450.523438 250.671875 450.96875 C 226.546875 471.480469 215.820312 503.589844 217.613281 537.917969 C 222.082031 599.457031 273.007812 637.796875 328.402344 635.128906 C 328.402344 635.128906 328.847656 635.128906 328.847656 635.128906 C 382.457031 629.773438 426.683594 586.078125 425.34375 527.214844 Z M 425.785156 40.742188" fill="#fe2c55"></path></g><path fill-rule="evenodd" fill-opacity="1" d="M 320.355469 359.863281 C 416.078125 359.863281 493.617188 437.632812 493.617188 533.109375 C 493.617188 628.585938 416.078125 705.808594 320.355469 705.808594 C 224.644531 705.808594 147.105469 628.585938 147.105469 533.109375 C 147.105469 437.632812 224.644531 359.863281 320.355469 359.863281 Z M 320.355469 446.757812 C 367.953125 446.757812 406.988281 485.375 406.988281 533.109375 C 406.988281 580.84375 367.953125 619.460938 320.355469 619.460938 C 272.773438 619.460938 233.730469 580.84375 233.730469 533.109375 C 233.730469 485.375 272.773438 446.757812 320.355469 446.757812 Z M 320.355469 446.757812" fill="#fe2c55"></path><g clip-path="url(#5d7d389a16)"><path fill-rule="evenodd" fill-opacity="1" d="M 399.039062 9.335938 L 522.34375 8.890625 C 523.679688 79.339844 557.628906 122.597656 595.601562 149.347656 C 595.601562 149.796875 596.054688 149.796875 596.054688 149.796875 C 622.859375 169.859375 654.574219 180.121094 694.335938 181.007812 L 694.335938 304.074219 C 624.195312 304.074219 566.121094 281.335938 522.34375 248.78125 L 521.890625 505.625 C 521 575.183594 491.074219 626.90625 454.878906 661.234375 C 451.757812 664.363281 448.636719 667.484375 445.058594 670.152344 C 398.597656 709.398438 353.03125 727.679688 290.488281 727.234375 C 228.839844 726.347656 182.375 703.15625 143.066406 669.265625 C 113.589844 643.855469 89.90625 610.855469 76.503906 565.367188 C 47.46875 465.496094 84.09375 366.5 166.738281 309.871094 C 168.53125 308.535156 170.765625 307.203125 173 305.859375 C 240.007812 263.945312 319.527344 254.582031 398.597656 294.265625 C 399.039062 352.234375 398.597656 414.21875 398.597656 471.730469 C 379.835938 401.726562 286.914062 364.714844 226.160156 417.335938 C 225.710938 417.78125 224.371094 419.117188 223.925781 419.5625 C 199.800781 440.074219 189.078125 472.183594 190.867188 506.515625 C 195.335938 568.050781 246.261719 606.394531 301.65625 603.722656 C 301.65625 603.722656 302.101562 603.722656 302.101562 603.722656 C 355.710938 598.367188 399.9375 554.675781 398.597656 495.8125 Z M 399.039062 9.335938" fill="#25f4ee"></path></g><g clip-path="url(#0c469757be)"><g clip-path="url(#4d0f308d5f)"><path fill-rule="evenodd" fill-opacity="1" d="M 293.601562 328.863281 C 389.324219 328.863281 466.863281 406.636719 466.863281 502.109375 C 466.863281 597.585938 389.324219 674.808594 293.601562 674.808594 C 197.890625 674.808594 120.355469 597.585938 120.355469 502.109375 C 120.355469 406.636719 197.890625 328.863281 293.601562 328.863281 Z M 293.601562 415.757812 C 341.199219 415.757812 380.234375 454.375 380.234375 502.109375 C 380.234375 549.847656 341.199219 588.460938 293.601562 588.460938 C 246.019531 588.460938 206.976562 549.847656 206.976562 502.109375 C 206.976562 454.375 246.019531 415.757812 293.601562 415.757812 Z M 293.601562 415.757812" fill="#25f4ee"></path></g></g><g clip-path="url(#04fd5f169f)"><g clip-path="url(#b2a76f58f2)"><path fill-rule="evenodd" fill-opacity="1" d="M 425.746094 40.742188 L 549.054688 40.296875 C 550.386719 110.742188 584.335938 154 622.308594 180.753906 C 622.308594 181.199219 622.761719 181.199219 622.761719 181.199219 C 649.566406 201.265625 681.28125 211.523438 721.042969 212.414062 L 721.042969 335.480469 C 650.902344 335.480469 592.828125 312.738281 549.054688 280.183594 L 548.597656 537.03125 C 547.707031 606.585938 517.78125 658.308594 481.585938 692.640625 C 478.464844 695.765625 475.34375 698.886719 471.765625 701.558594 C 425.304688 740.800781 379.738281 759.082031 317.195312 758.636719 C 255.546875 757.75 209.082031 734.558594 169.773438 700.671875 C 140.296875 675.257812 116.613281 642.257812 103.210938 596.773438 C 74.175781 496.898438 110.800781 397.90625 193.445312 341.277344 C 195.238281 339.9375 197.472656 338.605469 199.707031 337.265625 C 266.714844 295.347656 346.234375 285.984375 425.304688 325.671875 C 425.746094 383.636719 425.304688 445.621094 425.304688 503.132812 C 406.542969 433.132812 313.621094 396.117188 252.867188 448.738281 C 252.417969 449.183594 251.078125 450.523438 250.632812 450.96875 C 226.507812 471.480469 215.785156 503.589844 217.574219 537.917969 C 222.042969 599.457031 272.96875 637.796875 328.363281 635.128906 C 328.363281 635.128906 328.8125 635.128906 328.8125 635.128906 C 382.417969 629.773438 426.644531 586.078125 425.304688 527.214844 C 425.746094 364.90625 425.746094 202.605469 425.746094 40.742188 Z M 425.746094 40.742188" fill="#000000"></path></g></g></svg>